HIERARCHY
ROOT Bip001_Pelvis
{
  OFFSET 34.4345 95.6767 -26.8758
  CHANNELS 6 Xposition Yposition Zposition Zrotation Xrotation Yrotation
  JOINT Bip001_Spine
  {
    OFFSET 1.4188e-005 10.2191 -0.0116013
    CHANNELS 3 Zrotation Xrotation Yrotation
    JOINT Bip001_L_Thigh
    {
      OFFSET 11.0458 -10.2192 0.0116197
      CHANNELS 3 Zrotation Xrotation Yrotation
      JOINT Bip001_L_Calf
      {
        OFFSET -0.707118 -44.0221 0.360014
        CHANNELS 3 Zrotation Xrotation Yrotation
        JOINT Bip001_L_Foot
        {
          OFFSET -0.651902 -40.5938 -3.56146
          CHANNELS 3 Zrotation Xrotation Yrotation
          JOINT Bip001_L_Toe0
          {
            OFFSET 0.0530839 -10.2181 13.1504
            CHANNELS 3 Zrotation Xrotation Yrotation
            End Site
            {
              OFFSET -1.02532e-005 0 7.55606
            }
          }
        }
      }
    }
    JOINT Bip001_R_Thigh
    {
      OFFSET -11.0458 -10.2191 0.0115893
      CHANNELS 3 Zrotation Xrotation Yrotation
      JOINT Bip001_R_Calf
      {
        OFFSET 0.706994 -44.0221 0.35984
        CHANNELS 3 Zrotation Xrotation Yrotation
        JOINT Bip001_R_Foot
        {
          OFFSET 0.651786 -40.5938 -3.5613
          CHANNELS 3 Zrotation Xrotation Yrotation
          JOINT Bip001_R_Toe0
          {
            OFFSET -0.0531479 -10.2181 13.1504
            CHANNELS 3 Zrotation Xrotation Yrotation
            End Site
            {
              OFFSET -1.02894e-005 0 7.55606
            }
          }
        }
      }
    }
    JOINT Bip001_Spine1
    {
      OFFSET 1.87041e-005 14.5736 1.08638
      CHANNELS 3 Zrotation Xrotation Yrotation
      JOINT Bip001_Spine2
      {
        OFFSET 2.24614e-005 14.5058 -1.69078
        CHANNELS 3 Zrotation Xrotation Yrotation
        JOINT Bip001_Neck
        {
          OFFSET 2.20278e-005 15.3945 -0.489414
          CHANNELS 3 Zrotation Xrotation Yrotation
          JOINT Bip001_L_Clavicle
          {
            OFFSET 6.06036 -0.000579998 0.00836775
            CHANNELS 3 Zrotation Xrotation Yrotation
            JOINT Bip001_L_UpperArm
            {
              OFFSET 11.5509 -0.0600302 0.00193952
              CHANNELS 3 Zrotation Xrotation Yrotation
              JOINT Bip001_L_Forearm
              {
                OFFSET 25.9523 0.0806089 -2.15551
                CHANNELS 3 Zrotation Xrotation Yrotation
                JOINT Bip001_L_Hand
                {
                  OFFSET 32.2475 0.153767 1.63968
                  CHANNELS 3 Zrotation Xrotation Yrotation
                  JOINT Bip001_L_Finger0
                  {
                    OFFSET 6.04639 -2.20976 5.90322
                    CHANNELS 3 Zrotation Xrotation Yrotation
                    End Site
                    {
                      OFFSET 4.22375 -1.43895 0.606485
                    }
                  }
                  JOINT Bip001_L_Finger1
                  {
                    OFFSET 11.0826 -0.704819 -0.198153
                    CHANNELS 3 Zrotation Xrotation Yrotation
                    End Site
                    {
                      OFFSET 6.20027 -0.397518 -0.0787166
                    }
                  }
                }
              }
            }
          }
          JOINT Bip001_R_Clavicle
          {
            OFFSET -6.06037 -0.000563197 0.00835105
            CHANNELS 3 Zrotation Xrotation Yrotation
            JOINT Bip001_R_UpperArm
            {
              OFFSET -11.5509 -0.0599978 0.00190698
              CHANNELS 3 Zrotation Xrotation Yrotation
              JOINT Bip001_R_Forearm
              {
                OFFSET -25.9523 0.0806822 -2.15589
                CHANNELS 3 Zrotation Xrotation Yrotation
                JOINT Bip001_R_Hand
                {
                  OFFSET -32.2475 0.153859 1.63989
                  CHANNELS 3 Zrotation Xrotation Yrotation
                  JOINT Bip001_R_Finger0
                  {
                    OFFSET -6.04641 -2.20976 5.90317
                    CHANNELS 3 Zrotation Xrotation Yrotation
                    End Site
                    {
                      OFFSET -4.22376 -1.43895 0.60647
                    }
                  }
                  JOINT Bip001_R_Finger1
                  {
                    OFFSET -11.0826 -0.704794 -0.198182
                    CHANNELS 3 Zrotation Xrotation Yrotation
                    End Site
                    {
                      OFFSET -6.20028 -0.397504 -0.0787333
                    }
                  }
                }
              }
            }
          }
          JOINT Bip001_Head
          {
            OFFSET 1.09673e-005 11.2744 2.05948
            CHANNELS 3 Zrotation Xrotation Yrotation
            End Site
            {
              OFFSET 2.89576e-005 20.8808 -2.77728e-005
            }
          }
        }
      }
    }
  }
}
MOTION
Frames:	10
Frame Time:	0.04
33.6054 95.9395 -29.2026 1.17909 -0.21669 -0.344663 -0.519281 2.09167 0.622289 3.75039 -2.55666 8.2257 0.236405 5.83256 -7.61072 2.67893 -3.21327 -0.0643728 0.729881 -4.38222 -0.131516 -4.50786 -4.58346 1.12796 1.1517 11.6951 -0.179106 -5.63936 -9.4823 1.04216 2.12066 -7.23131 2.18623 -1.0495 4.17757 1.2645 -1.0495 4.17757 1.2645 4.20644 -11.3705 -3.71282 -28.7401 11.3962 1.6524 -57.8301 44.8628 4.58025 16.0771 0.948737 -21.3757 8.79385 1.25733 -4.23989 6.36111e-015 3.18055e-015 -0 3.18055e-015 3.18056e-015 -0 21.2829 17.0421 11.7624 51.4849 6.24823 3.85024 -15.338 59.6311 23.3135 -15.0287 -9.79346 17.8026 -6.36111e-015 0 2.38542e-015 -9.54166e-015 -7.95139e-016 7.95139e-016 -3.84218 -2.60832 -1.91742 
33.6131 95.9278 -29.1881 1.16383 -0.216686 -0.481154 -0.524726 2.06795 0.657655 3.71046 -2.48933 8.26515 0.255599 5.74351 -7.63754 3.30815 -2.80827 -0.0849725 1.03064 -4.86467 -0.387846 -4.49927 -4.63184 1.35807 1.2556 11.7673 -0.23253 -5.71607 -9.50079 0.882739 2.12057 -7.22888 2.18622 -1.07424 4.12965 1.33555 -1.07424 4.12965 1.33555 4.24114 -11.3436 -3.71259 -28.8019 11.3958 1.5955 -57.4089 44.6755 4.54762 15.7938 0.793518 -21.5429 8.42931 1.27701 -4.01424 0 6.36111e-015 -0 3.18055e-015 9.54167e-015 -0 21.1215 16.9916 11.7295 51.3273 5.63511 4.12276 -16.0429 60.1828 23.9713 -14.8517 -10.15 18.2713 8.27607e-032 2.38542e-015 -1.98785e-015 9.93129e-032 2.38542e-015 -2.38542e-015 -3.85941 -2.36323 -1.9224 
33.6155 95.9324 -29.1717 1.18206 -0.220141 -0.498648 -0.541774 2.0503 0.671122 3.68941 -2.40867 8.19402 0.304286 5.67478 -7.49566 3.06683 -2.93959 -0.0749562 0.981174 -4.73775 -0.362179 -4.54718 -4.59623 1.16876 1.28601 11.7798 -0.0391295 -5.72565 -9.52725 0.937539 2.11708 -7.19129 2.1697 -1.10863 4.09402 1.36294 -1.10863 4.09403 1.36294 4.18692 -11.3038 -3.74022 -28.9672 11.3348 1.64987 -56.8464 44.7431 4.42204 15.5419 0.576345 -21.559 8.17208 1.29403 -3.93313 3.18055e-015 3.18055e-015 -1.59028e-015 0 0 -0 21.202 16.9386 11.6561 51.1279 4.87068 4.29551 -16.5483 60.7468 24.7641 -14.6159 -9.88163 19.3406 -6.36111e-015 -1.59028e-015 7.95139e-016 -6.36111e-015 -2.38542e-015 -3.97569e-016 -3.77103 -2.29139 -1.97938 
33.5866 95.9245 -29.1547 1.14867 -0.170907 -0.503121 -0.545095 2.03862 0.697063 3.75691 -2.45679 8.17471 0.297368 5.72835 -7.5259 3.0337 -3.01756 -0.0715965 0.975733 -4.73808 -0.321187 -4.50177 -4.59328 1.11066 1.30566 11.7354 -0.0421832 -5.73154 -9.54833 0.976089 2.11717 -7.20376 2.16676 -1.11797 4.07031 1.41498 -1.11797 4.07031 1.41497 4.16984 -11.451 -3.81804 -29.0309 11.4546 1.69982 -56.5928 44.7837 4.2595 15.4924 0.50642 -21.4368 8.28814 1.17199 -4.04387 -3.18055e-015 -3.18055e-015 -0 -6.36111e-015 -6.36111e-015 -0 21.2402 17.0584 11.5109 51.1097 4.86262 4.49105 -16.4888 60.7413 25.1596 -14.4798 -9.51499 19.9234 6.36111e-015 -7.95139e-016 1.98785e-015 3.18055e-015 0 1.98785e-015 -3.76778 -2.23838 -2.05581 
33.5561 95.9147 -29.1329 1.08703 -0.104251 -0.513309 -0.547941 2.02775 0.715938 3.83671 -2.58334 8.04966 0.280775 5.90128 -7.49925 3.21623 -3.00507 -0.0718972 0.918566 -4.83147 -0.308442 -4.4268 -4.65038 1.14376 1.31457 11.765 -0.0638935 -5.74713 -9.56852 0.956954 2.11734 -7.18792 2.17287 -1.12051 4.04753 1.45259 -1.12051 4.04753 1.45259 4.08175 -11.5517 -3.84837 -29.0591 11.5417 1.76332 -56.4859 44.7158 4.28866 15.379 0.103218 -21.5593 8.47618 1.23923 -3.85746 -8.82781e-032 3.18055e-015 1.59028e-015 -3.18055e-015 6.36111e-015 3.18055e-015 21.3328 17.1595 11.4715 51.3249 4.37494 4.63184 -17.2345 61.0628 25.9773 -14.0656 -10.0352 20.1229 3.18055e-015 1.59028e-015 -1.59028e-015 -1.43452e-031 -1.59028e-015 -5.1684e-015 -3.69365 -2.35548 -2.12544 
33.542 95.9224 -29.0936 1.08705 -0.112551 -0.445585 -0.5628 2.02537 0.721106 3.86905 -2.54858 7.95507 0.301787 5.88971 -7.37449 2.91172 -3.22896 -0.0719393 0.888847 -4.64647 -0.277504 -4.39327 -4.58287 1.02015 1.28736 11.7242 -0.0250903 -5.75479 -9.55243 0.953652 2.12428 -7.22253 2.18935 -1.15246 4.04314 1.46954 -1.15245 4.04314 1.46949 4.14637 -11.5946 -3.88595 -29.0975 11.5771 1.74012 -56.6584 44.6163 4.4182 15.3878 -0.13613 -21.6713 8.48232 1.30099 -3.74826 6.36111e-015 0 -1.59028e-015 3.18055e-015 -3.18056e-015 -0 21.1814 17.1725 11.3944 51.7989 3.79304 4.99014 -18.0152 61.8024 26.3976 -13.7791 -11.399 20.4027 3.18055e-015 0 1.59028e-015 3.18055e-015 0 -3.97569e-016 -3.7352 -2.49018 -2.14472 
33.5407 95.9221 -29.0569 1.11146 -0.0929947 -0.402397 -0.577139 2.01551 0.724067 3.84386 -2.50887 7.97483 0.320569 5.81313 -7.43667 2.98616 -3.11956 -0.07205 0.971053 -4.70836 -0.314023 -4.39271 -4.56665 0.977043 1.29433 11.7378 -0.04275 -5.77606 -9.58173 0.935394 2.13073 -7.23151 2.19242 -1.18065 4.02412 1.47054 -1.18056 4.02412 1.47052 4.11662 -11.6576 -3.887 -29.0575 11.6354 1.76904 -56.9049 44.6719 4.51734 15.6125 0.206705 -21.6643 8.45262 1.13431 -3.90948 -6.36111e-015 -3.18055e-015 1.59028e-015 -3.18055e-015 -3.18056e-015 1.59028e-015 21.0751 17.1606 11.2701 52.2108 3.18609 5.1908 -18.8506 62.6076 27.1771 -13.8946 -12.7069 20.2228 6.36111e-015 -5.56597e-015 -2.78298e-015 9.54166e-015 -2.38542e-015 -3.18055e-015 -3.70836 -2.43007 -2.16179 
33.5411 95.9129 -29.0158 1.10969 -0.0339632 -0.364517 -0.582281 1.99938 0.732636 3.83001 -2.52937 7.98327 0.298778 5.77011 -7.61953 3.44353 -2.82892 -0.087405 1.06179 -5.01457 -0.363197 -4.39014 -4.58685 0.853278 1.26326 11.7708 -0.00324251 -5.78103 -9.63538 0.977682 2.13324 -7.21264 2.18859 -1.19257 3.99101 1.48683 -1.19324 3.991 1.4869 4.0912 -11.6263 -3.90099 -29.1131 11.595 1.793 -56.9887 44.8971 4.5098 15.6857 0.157952 -21.4742 8.27976 1.01261 -3.9712 8.82781e-032 -3.18055e-015 1.59028e-015 -3.18055e-015 -6.36111e-015 3.18055e-015 21.1611 17.1331 11.2375 52.1625 2.41287 5.26103 -19.7433 63.426 28.2348 -13.6918 -14.0166 20.2976 -3.18055e-015 2.38542e-015 -7.95139e-015 -3.18055e-015 3.18056e-015 -8.34896e-015 -3.69917 -2.49331 -2.18146 
33.5389 95.9095 -28.959 1.08049 0.00531717 -0.348035 -0.586868 1.99902 0.764257 3.84965 -2.55889 7.92797 0.32743 5.82437 -7.66843 3.47079 -2.86728 -0.0960381 0.990207 -4.98227 -0.294096 -4.35059 -4.55899 0.629259 1.19177 11.7367 0.0255623 -5.72223 -9.66031 1.15663 2.13293 -7.19765 2.16774 -1.19912 3.98536 1.54948 -1.19987 3.98537 1.54952 4.11291 -11.6333 -3.96159 -29.1642 11.5774 1.82644 -56.9586 45.1189 4.36504 15.655 0.00667502 -21.2297 8.27689 0.96266 -3.91508 -3.18055e-015 6.36111e-015 -0 -3.18055e-015 0 -0 21.1664 17.1705 11.2939 52.0493 1.57184 5.2817 -20.3975 64.05 29.2373 -13.4387 -15.2204 20.65 2.20695e-031 3.18055e-015 -3.97569e-015 3.18055e-015 3.18056e-015 -5.56597e-015 -3.72227 -2.49779 -2.22902 
33.5414 95.9032 -28.8896 1.10049 0.0267306 -0.304926 -0.591144 1.99895 0.777117 3.82154 -2.54737 7.90069 0.325188 5.82826 -7.67861 3.6313 -2.78748 -0.0960766 1.09228 -5.07401 -0.359323 -4.34786 -4.54421 0.479167 1.1459 11.7845 0.134241 -5.7595 -9.71125 1.13273 2.1358 -7.22307 2.17941 -1.20407 3.9863 1.58959 -1.20445 3.9863 1.58959 4.06266 -11.6917 -3.99843 -29.1632 11.6087 1.90379 -56.9075 45.1029 4.41358 15.5977 -0.266594 -21.3515 8.2254 1.0593 -3.6664 -3.18055e-015 -3.18055e-015 -0 -3.18055e-015 -6.36111e-015 -0 21.2256 17.2303 11.2648 51.9812 0.492123 5.33297 -21.3887 64.8267 30.6652 -13.2795 -16.153 21.0439 3.18055e-015 -3.18055e-015 -7.95139e-016 -2.20695e-031 -3.18056e-015 -3.97569e-015 -3.70959 -2.37631 -2.27399 
